<svg xmlns="http://www.w3.org/2000/svg" viewBox="0 0 301 301"><defs><style>.cls-1{fill:#fff;}.cls-2,.cls-3{fill:none;stroke:#fff;}.cls-2{stroke-linecap:round;stroke-linejoin:round;stroke-width:9px;}.cls-3{stroke-miterlimit:10;stroke-width:6px;}</style></defs><g id="Layer_2" data-name="Layer 2"><g id="Layer_2-2" data-name="Layer 2"><path class="cls-1" d="M267.19,13A20.84,20.84,0,0,1,288,33.81V267.19A20.84,20.84,0,0,1,267.19,288H33.81A20.84,20.84,0,0,1,13,267.19V33.81A20.84,20.84,0,0,1,33.81,13H267.19m0-13H33.81A33.81,33.81,0,0,0,0,33.81V267.19A33.81,33.81,0,0,0,33.81,301H267.19A33.81,33.81,0,0,0,301,267.19V33.81A33.81,33.81,0,0,0,267.19,0Z"/><path class="cls-1" d="M204,56a171.58,171.58,0,0,1,40.2,4.52c-28.79,5.74-56.08,19.06-79.87,39.06-17.58.76-31.2,4.81-40.51,12.06a9,9,0,0,0,5.52,16.1h.18c1.92,0,3.85-.06,5.73-.06h2.39c-3,4.53-5.54,9.23-8,13.85A137.44,137.44,0,0,1,121,156.06c-8.47,10.78-19.87,20-31.94,29.79C80.4,192.85,71.51,200,63.61,208c-8.37-11.95-12.66-28.71-11.8-46.47.88-18.42,7-35.64,16.79-47.24,16.71-19.81,38.22-35,64-45A197.71,197.71,0,0,1,204,56m0-9C156.46,47,99.67,63.48,61.72,108.48,39.09,135.33,35.17,186.25,58,215.61a8.57,8.57,0,0,0,6.76,3.29h.52l.35,0c18.56-20.61,45.72-36,62.5-57.45,8.66-12,13.69-27.1,24.2-38q1.86-2,3.76-4c-6.11-.51-13.07-.83-20.88-.83q-2.88,0-5.91.06c9.81-7.63,24.71-10,38.43-10.26,26.47-23,59.15-38.25,94.58-41.52a5,5,0,0,0,4.51-4.83,5.17,5.17,0,0,0-3.31-4.82C248,50.9,227.11,47,204,47Z"/><path class="cls-2" d="M104.1,110.59c-20.19,14.75-45.81,69.88-40.38,116.48"/><path class="cls-3" d="M76.14,243.73c-1.63,8.11-11.44,15.85-11.44,15.85s-11.23-6.1-13.64-14c-2.14-7,4.52-15.33,11.44-15.84S77.67,236.07,76.14,243.73Z"/><line class="cls-2" x1="58.29" y1="223.96" x2="68.54" y2="223.96"/><line class="cls-2" x1="58.29" y1="218.52" x2="68.54" y2="218.52"/><path class="cls-1" d="M65.14,262.55a3.42,3.42,0,0,1-3.39-3l-1.14-9.13a3.42,3.42,0,0,1,6.79-.85l1.14,9.13a3.42,3.42,0,0,1-3,3.83Z"/></g></g></svg>