<svg xmlns="http://www.w3.org/2000/svg" viewBox="0 0 301 301"><defs><style>.cls-1{fill:#fff;}</style></defs><g id="Layer_2" data-name="Layer 2"><g id="Layer_2-2" data-name="Layer 2"><path class="cls-1" d="M267.19,13A20.84,20.84,0,0,1,288,33.81V267.19A20.84,20.84,0,0,1,267.19,288H33.81A20.84,20.84,0,0,1,13,267.19V33.81A20.84,20.84,0,0,1,33.81,13H267.19m0-13H33.81A33.81,33.81,0,0,0,0,33.81V267.19A33.81,33.81,0,0,0,33.81,301H267.19A33.81,33.81,0,0,0,301,267.19V33.81A33.81,33.81,0,0,0,267.19,0Z"/><path class="cls-1" d="M239.39,63.15q-.42-.48-.87-.93A19.65,19.65,0,0,0,205.37,80l-21.63,21.63L162.12,80a10.28,10.28,0,0,0-14.54,14.54l10.06,10.06L68.07,194.2a4.47,4.47,0,0,0-1.2,2.15L56.86,239a4.5,4.5,0,0,0,5.46,5.38l42.15-10.54a4.42,4.42,0,0,0,2.08-1.18l89.57-89.57,10.06,10.06a10.28,10.28,0,0,0,14.54-14.54L199.1,117l21.63-21.63a19.65,19.65,0,0,0,18.66-32.23ZM191.6,103.27l3.93-3.93,5.88,5.88-3.93,3.93ZM201.88,93l3.93-3.93,5.87,5.87-3.93,3.93ZM101.09,225.46l-33.82,8.45,8-34.27,86.9-86.9,9.73,9.73L84.4,210a4.48,4.48,0,0,0,6.34,6.34l87.54-87.54,9.73,9.73ZM216,143.37a3.58,3.58,0,0,1-5.06,5.06L189.3,126.81l-15.36-15.36L152.32,89.83a3.58,3.58,0,0,1,5.06-5.06Zm18.45-58.78a12.89,12.89,0,0,1-12.38,4.22l-.6-.1a9.82,9.82,0,0,1-6-2.69l-.71-.71a9.82,9.82,0,0,1-2.69-6c0-.2-.06-.4-.1-.6A12.94,12.94,0,0,1,233.78,67h0c.2.2.4.4.58.61A13.13,13.13,0,0,1,234.43,84.59Z"/><circle class="cls-1" cx="224.56" cy="76.19" r="7.08"/></g></g></svg>