<svg xmlns="http://www.w3.org/2000/svg" viewBox="0 0 301 301"><defs><style>.cls-1{fill:#fff;}</style></defs><g id="Layer_2" data-name="Layer 2"><g id="Layer_2-2" data-name="Layer 2"><path class="cls-1" d="M267.19,13A20.84,20.84,0,0,1,288,33.81V267.19A20.84,20.84,0,0,1,267.19,288H33.81A20.84,20.84,0,0,1,13,267.19V33.81A20.84,20.84,0,0,1,33.81,13H267.19m0-13H33.81A33.81,33.81,0,0,0,0,33.81V267.19A33.81,33.81,0,0,0,33.81,301H267.19A33.81,33.81,0,0,0,301,267.19V33.81A33.81,33.81,0,0,0,267.19,0Z"/><path class="cls-1" d="M93.76,85.79a64.58,64.58,0,0,0,12.33,24.6,9,9,0,0,0,6.42,3.3,5.33,5.33,0,0,0,.56,0,9,9,0,0,0,6.23-2.5c7.64-7.31,19-11.51,31.2-11.5s23.58,4.2,31.23,11.52a9,9,0,0,0,6.22,2.5h.55a9.05,9.05,0,0,0,6.42-3.29A64,64,0,0,0,207.23,86a49.82,49.82,0,0,1,.74,6.68,51.7,51.7,0,0,1-10.26,33.46,9,9,0,0,0-1.5,8.1c6.91,22.91-6.84,49.69-29.42,57.3a9,9,0,0,0,.53,17.22,82.65,82.65,0,0,1,43.56,29c10.63,13.51,17.64,30.62,20.48,49.84-12.19,1.24-40.79,2.32-80.8,2.32s-68.72-1.08-80.92-2.32c2.84-19.22,9.85-36.33,20.48-49.84a82.59,82.59,0,0,1,43.56-29,9,9,0,0,0,.53-17.22c-22.55-7.61-36.3-34.36-29.44-57.26a9,9,0,0,0-1.5-8.09A51.79,51.79,0,0,1,93,92.7a49.84,49.84,0,0,1,.78-6.91m7.58-30c-22.45,18.07-22.09,54.11-5.19,75.95-8.42,28.06,8.43,59.35,35.18,68.37-37.78,10.22-67.11,44-71.55,94.36-.27,3,45.26,4.51,90.78,4.51s90.93-1.5,90.66-4.51c-4.44-50.32-33.76-84.14-71.55-94.36,26.77-9,43.62-40.36,35.16-68.43,16.87-21.82,17.21-57.81-5.17-75.89,2.72,17.47-.54,35.31-11.71,49-9.76-9.35-23.61-14-37.45-14s-27.66,4.66-37.43,14C102,91,98.64,73.24,101.34,55.75Z"/><circle class="cls-1" cx="130" cy="133.23" r="7.5"/><circle class="cls-1" cx="171" cy="133.23" r="7.5"/><path class="cls-1" d="M150.9,165.5A10.5,10.5,0,0,0,161.4,155h-21A10.5,10.5,0,0,0,150.9,165.5Z"/></g></g></svg>